<svg xmlns="http://www.w3.org/2000/svg" xmlns:xlink="http://www.w3.org/1999/xlink" version="1.1" width="256" height="256" viewBox="0 0 256 256" xml:space="preserve">

<defs>
</defs>
<g style="stroke: none; stroke-width: 0; stroke-dasharray: none; stroke-linecap: butt; stroke-linejoin: miter; stroke-miterlimit: 10; fill: none; fill-rule: nonzero; opacity: 1;" transform="translate(1.4065934065934016 1.4065934065934016) scale(2.81 2.81)" >
	<path d="M 76.887 60.444 h -4.884 c -0.828 0 -1.5 -0.672 -1.5 -1.5 s 0.672 -1.5 1.5 -1.5 h 4.884 C 82.463 57.444 87 52.907 87 47.331 c 0 -5.335 -4.179 -9.764 -9.514 -10.081 l -1.581 -0.094 l 0.18 -1.573 c 0.1 -0.872 0.147 -1.652 0.147 -2.385 c 0 -11.438 -9.305 -20.742 -20.742 -20.742 c -7.165 0 -13.729 3.641 -17.559 9.741 l -0.745 1.187 l -1.235 -0.663 c -2.294 -1.231 -4.889 -1.882 -7.502 -1.882 c -8.491 0 -15.457 6.65 -15.858 15.14 l -0.057 1.196 l -1.179 0.21 C 6.514 38.244 3 42.428 3 47.331 c 0 5.576 4.537 10.113 10.113 10.113 h 4.386 c 0.829 0 1.5 0.672 1.5 1.5 s -0.671 1.5 -1.5 1.5 h -4.386 C 5.883 60.444 0 54.562 0 47.331 c 0 -5.966 4.007 -11.109 9.683 -12.645 c 1.025 -9.537 9.057 -16.849 18.766 -16.849 c 2.649 0 5.282 0.563 7.693 1.637 c 4.46 -6.299 11.596 -10.019 19.349 -10.019 c 13.092 0 23.742 10.651 23.742 23.742 c 0 0.401 -0.013 0.813 -0.037 1.239 C 85.365 35.536 90 40.93 90 47.331 C 90 54.562 84.117 60.444 76.887 60.444 z" style="stroke: none; stroke-width: 1; stroke-dasharray: none; stroke-linecap: butt; stroke-linejoin: miter; stroke-miterlimit: 10; fill: rgb(37,51,75); fill-rule: nonzero; opacity: 1;" transform=" matrix(1 0 0 1 0 0) " stroke-linecap="round" />
	<path d="M 66.928 31.09 c -0.639 0 -1.23 -0.411 -1.432 -1.052 c -1.375 -4.395 -5.396 -7.347 -10.006 -7.347 c -0.828 0 -1.5 -0.671 -1.5 -1.5 s 0.672 -1.5 1.5 -1.5 c 5.928 0 11.1 3.798 12.869 9.451 c 0.247 0.791 -0.193 1.632 -0.983 1.88 C 67.227 31.068 67.076 31.09 66.928 31.09 z" style="stroke: none; stroke-width: 1; stroke-dasharray: none; stroke-linecap: butt; stroke-linejoin: miter; stroke-miterlimit: 10; fill: rgb(37,51,75); fill-rule: nonzero; opacity: 1;" transform=" matrix(1 0 0 1 0 0) " stroke-linecap="round" />
	<path d="M 21.859 37.381 c -0.024 0 -0.048 0 -0.072 -0.001 c -0.828 -0.04 -1.467 -0.742 -1.428 -1.569 c 0.205 -4.33 3.758 -7.721 8.089 -7.721 c 0.829 0 1.5 0.671 1.5 1.5 s -0.671 1.5 -1.5 1.5 c -2.727 0 -4.963 2.136 -5.092 4.862 C 23.319 36.755 22.655 37.381 21.859 37.381 z" style="stroke: none; stroke-width: 1; stroke-dasharray: none; stroke-linecap: butt; stroke-linejoin: miter; stroke-miterlimit: 10; fill: rgb(37,51,75); fill-rule: nonzero; opacity: 1;" transform=" matrix(1 0 0 1 0 0) " stroke-linecap="round" />
	<path d="M 65.259 43.885 c -0.459 -0.127 -0.92 -0.14 -1.361 -0.068 c -2.169 -1.907 -5.706 -2.616 -9.943 -2.167 c -2.158 -4.872 -5.343 -7.908 -8.955 -7.908 c -3.61 0 -6.792 3.032 -8.951 7.898 c -0.224 -0.024 -0.454 -0.062 -0.675 -0.08 c -5.174 -0.424 -8.95 0.955 -10.64 3.882 c -0.003 0.006 -0.005 0.012 -0.008 0.018 c -1.228 0.167 -2.3 1.042 -2.652 2.312 c -0.47 1.694 0.518 3.445 2.206 3.925 c 0.511 1.75 1.484 3.594 2.832 5.445 c -3.135 4.302 -4.182 8.575 -2.378 11.701 c 1.524 2.641 4.767 3.938 8.927 3.938 c 0.762 0 1.565 -0.059 2.384 -0.146 c 0.568 1.282 1.206 2.437 1.905 3.442 c -0.037 0.096 -0.084 0.186 -0.112 0.288 c -0.471 1.701 0.525 3.462 2.226 3.933 c 0.835 0.232 1.683 0.106 2.387 -0.28 c 0.819 0.341 1.671 0.525 2.549 0.525 c 3.612 0 6.797 -3.036 8.955 -7.909 c 0.819 0.087 1.62 0.146 2.383 0.146 c 4.16 0 7.403 -1.298 8.928 -3.938 c 1.805 -3.126 0.757 -7.398 -2.378 -11.701 c 1.885 -2.587 3.002 -5.156 3.206 -7.478 c 0.654 -0.409 1.169 -1.045 1.391 -1.847 C 67.956 46.117 66.96 44.357 65.259 43.885 z M 45 36.742 c 2.039 0 4.188 1.996 5.861 5.417 c -1.877 0.412 -3.841 1.018 -5.852 1.823 c -1.987 -0.797 -3.959 -1.415 -5.862 -1.837 C 40.819 38.732 42.964 36.742 45 36.742 z M 53.861 57.143 c 0 1.735 -0.107 3.383 -0.286 4.952 c -1.269 0.939 -2.643 1.856 -4.145 2.723 c -1.502 0.867 -2.983 1.598 -4.43 2.228 c -1.448 -0.629 -2.929 -1.361 -4.431 -2.228 c -1.502 -0.867 -2.875 -1.784 -4.144 -2.723 c -0.179 -1.569 -0.286 -3.217 -0.286 -4.952 c 0 -1.734 0.107 -3.382 0.286 -4.951 c 1.269 -0.939 2.642 -1.856 4.144 -2.723 c 1.503 -0.868 2.984 -1.599 4.432 -2.229 c 1.478 0.645 2.962 1.382 4.429 2.229 c 1.502 0.867 2.876 1.784 4.145 2.723 C 53.754 53.76 53.861 55.408 53.861 57.143 z M 56.807 54.866 c 0.817 0.759 1.561 1.52 2.225 2.277 c -0.664 0.757 -1.408 1.518 -2.225 2.277 c 0.035 -0.749 0.055 -1.508 0.055 -2.277 C 56.861 56.373 56.842 55.615 56.807 54.866 z M 52.876 66.227 c -0.249 1.088 -0.536 2.114 -0.86 3.068 c -0.99 -0.197 -2.024 -0.462 -3.093 -0.791 c 0.669 -0.345 1.338 -0.702 2.008 -1.088 C 51.598 67.03 52.244 66.632 52.876 66.227 z M 41.078 68.504 c -1.069 0.329 -2.103 0.594 -3.093 0.791 c -0.324 -0.954 -0.611 -1.98 -0.86 -3.067 c 0.631 0.405 1.277 0.803 1.944 1.188 C 39.739 67.802 40.409 68.158 41.078 68.504 z M 33.194 59.42 c -0.817 -0.759 -1.561 -1.52 -2.225 -2.277 c 0.664 -0.757 1.408 -1.518 2.225 -2.277 c -0.035 0.748 -0.055 1.507 -0.055 2.276 C 33.139 57.912 33.159 58.671 33.194 59.42 z M 37.991 44.974 c 1.009 0.204 2.042 0.472 3.093 0.799 c -0.671 0.346 -1.343 0.71 -2.014 1.097 c -0.667 0.385 -1.313 0.783 -1.945 1.188 C 37.375 46.965 37.664 45.933 37.991 44.974 z M 50.931 46.871 c -0.662 -0.382 -1.329 -0.746 -1.998 -1.092 c 1.065 -0.328 2.096 -0.592 3.083 -0.788 c 0.324 0.954 0.611 1.98 0.86 3.068 C 52.244 47.654 51.598 47.256 50.931 46.871 z M 27.242 51.044 c 0.462 -0.398 0.816 -0.932 0.991 -1.563 c 0.292 -1.054 0.019 -2.129 -0.634 -2.908 c 1.04 -1.349 3.155 -2.088 6.006 -2.088 c 0.432 0 0.886 0.023 1.35 0.057 c -0.587 1.843 -1.046 3.866 -1.356 6.027 c -1.703 1.339 -3.21 2.737 -4.506 4.157 C 28.219 53.428 27.602 52.185 27.242 51.044 z M 27.332 67.344 c -1.019 -1.766 -0.365 -4.625 1.761 -7.784 c 1.296 1.42 2.802 2.818 4.506 4.157 c 0.308 2.148 0.763 4.16 1.345 5.994 C 31.15 69.971 28.351 69.108 27.332 67.344 z M 45 77.544 c -0.296 0 -0.595 -0.052 -0.894 -0.135 c 0.089 -1.473 -0.855 -2.859 -2.334 -3.269 c -0.512 -0.142 -1.025 -0.137 -1.511 -0.034 c -0.392 -0.591 -0.767 -1.255 -1.121 -1.98 c 1.879 -0.413 3.847 -1.028 5.861 -1.835 c 2.014 0.807 3.982 1.422 5.861 1.834 C 49.188 75.548 47.039 77.544 45 77.544 z M 62.668 67.344 c -1.018 1.765 -3.817 2.627 -7.612 2.367 c 0.582 -1.835 1.038 -3.847 1.345 -5.995 c 1.703 -1.339 3.21 -2.737 4.505 -4.157 C 63.034 62.719 63.688 65.578 62.668 67.344 z M 56.401 50.57 c -0.308 -2.148 -0.763 -4.161 -1.345 -5.995 c 2.778 -0.19 5.02 0.22 6.42 1.149 c -0.054 0.127 -0.113 0.25 -0.15 0.386 c -0.422 1.522 0.337 3.085 1.719 3.736 c -0.228 1.441 -0.947 3.11 -2.139 4.88 C 59.611 53.308 58.105 51.909 56.401 50.57 z" style="stroke: none; stroke-width: 1; stroke-dasharray: none; stroke-linecap: butt; stroke-linejoin: miter; stroke-miterlimit: 10; fill: rgb(65,98,163); fill-rule: nonzero; opacity: 1;" transform=" matrix(1 0 0 1 0 0) " stroke-linecap="round" />
</g>
</svg>